# xmcd
#
# Track frame offsets:
#	150
#	18100
#	35880
#	55270
#
# Disc length: 1078 seconds
#
# Revision: 5
# Processed by: cddbd v1.5.2PL0 Copyright (c) Steve Scherf et al.
# Submitted via: EasyCDDAExtractor 7.0.5.4
#
DISCID=2c043404
DTITLE=Mirah - Someday [CDm '94)
DYEAR=1994
DGENRE=Eurodance
TTITLE0=Someday (Radio Version)
TTITLE1=Someday (Radio Remix)
TTITLE2=Someday (Club Version)
TTITLE3=Someday (Club Remix)
EXTD=
EXTT0=
EXTT1=
EXTT2=
EXTT3=
PLAYORDER=
